<svg id="Layer_1" data-name="Layer 1" xmlns="http://www.w3.org/2000/svg" viewBox="0 0 200 200"><title>myusSVG-logo</title><circle cx="100" cy="100" r="100" style="fill:#3a3a3a"/><path d="M69,72.22V57.29a4.44,4.44,0,0,0-4.37-4.37,8.06,8.06,0,0,0-4.37,1.32v18a2.6,2.6,0,0,1-2.64,2.64,2.49,2.49,0,0,1-1.83-.76,2.56,2.56,0,0,1-.76-1.88V56.63q0-3.71-4.16-3.71a17.24,17.24,0,0,0-4.57.71V72.22a2.6,2.6,0,0,1-.76,1.88,2.49,2.49,0,0,1-1.83.76,2.6,2.6,0,0,1-2.64-2.64V52.67a3.11,3.11,0,0,1,2.13-3.1A22.49,22.49,0,0,1,51.4,48.1a9.25,9.25,0,0,1,6.15,2.08,12.59,12.59,0,0,1,7.11-2.08,9.38,9.38,0,0,1,9.6,9.6V72.22a2.57,2.57,0,0,1-.77,1.88,2.52,2.52,0,0,1-1.87.76,2.47,2.47,0,0,1-1.86-.76A2.61,2.61,0,0,1,69,72.22Z" style="fill:#fff"/><path d="M85.53,77.5l1.27-4.16L78.42,51.65a3,3,0,0,1-.2-1,2.43,2.43,0,0,1,.81-1.8,2.6,2.6,0,0,1,1.88-.79,2.33,2.33,0,0,1,2.38,1.67l6.1,16.71,5.23-16.6a2.38,2.38,0,0,1,2.44-1.78,2.67,2.67,0,0,1,1.88.76,2.49,2.49,0,0,1,.81,1.88,2.05,2.05,0,0,1-.15.81L90.51,78.72a10.17,10.17,0,0,1-3.64,5.08,10.06,10.06,0,0,1-6.11,1.88A2.62,2.62,0,0,1,78.93,85a2.31,2.31,0,0,1-.76-1.8,2.26,2.26,0,0,1,.73-1.68,2.64,2.64,0,0,1,1.75-.76C83.26,80.65,84.89,79.56,85.53,77.5Z" style="fill:#fff"/><path d="M87.15,139.74V98.4a5.78,5.78,0,0,1,1.64-4.17,5.5,5.5,0,0,1,4.11-1.69,5.77,5.77,0,0,1,5.86,5.86v43.7a7,7,0,0,1-1.36,4.23A7.34,7.34,0,0,1,93.8,149a53.67,53.67,0,0,1-17.68,2.93q-10.49,0-16.56-6.08t-6-16.56V98.4a5.77,5.77,0,0,1,5.86-5.86,5.56,5.56,0,0,1,4,1.69,5.66,5.66,0,0,1,1.69,4.17v31.76c0,3.46,1,6.14,2.87,8.06s4.6,2.87,8.06,2.87A44.44,44.44,0,0,0,87.15,139.74Z" style="fill:#f3cd00"/><path d="M137.05,117.66l-13.51-6q-13.31-5.75-13.3-19.49a18.81,18.81,0,0,1,7.66-15.54,28.14,28.14,0,0,1,17.8-6,45.57,45.57,0,0,1,18.58,3.72q4.4,1.92,4.4,5.74A5.13,5.13,0,0,1,157,84a5.52,5.52,0,0,1-4,1.58,5.17,5.17,0,0,1-2.14-.45c-.23-.08-.81-.32-1.75-.73a26,26,0,0,0-2.42-1c-.68-.23-1.62-.49-2.82-.79a29.92,29.92,0,0,0-4-.68,47.13,47.13,0,0,0-4.78-.22,17,17,0,0,0-9,2.36q-3.89,2.37-3.88,7.55A9,9,0,0,0,124,97.5a15.08,15.08,0,0,0,5.35,3.83L142.23,107a36.46,36.46,0,0,1,12.22,8.11q4.45,4.73,4.45,13A23,23,0,0,1,152,145.14q-6.87,6.77-18.13,6.76a51.33,51.33,0,0,1-20.16-4.28,5.29,5.29,0,0,1-3.5-5.29,5.92,5.92,0,0,1,1.47-4.11,5,5,0,0,1,3.94-1.64,9,9,0,0,1,3.6.79,37,37,0,0,0,14.65,3.49q6.19,0,9.57-2.93t3.38-8.44Q146.85,122.05,137.05,117.66Z" style="fill:#f3cd00"/></svg>