<svg id="Group_2356" data-name="Group 2356" xmlns="http://www.w3.org/2000/svg" width="375" height="812" viewBox="0 0 375 812">
  <rect id="Rectangle_575" data-name="Rectangle 575" width="375" height="812" fill="#f3cd00"/>
  <g id="Group_2354" data-name="Group 2354" transform="translate(0 0.113)">
    <path id="Subtraction_1" data-name="Subtraction 1" d="M.3,811.887H0V793.616c.009,6.068.109,12.215.3,18.27Zm-.3-19.9H0V0H375V273.139a429.1,429.1,0,0,0-77.568,26.093,450.947,450.947,0,0,0-71.326,40.049,480.562,480.562,0,0,0-63.821,52.579c-9.9,9.684-19.553,19.96-28.7,30.543s-18.016,21.735-26.351,33.14c-8.353,11.431-16.374,23.395-23.842,35.56-7.5,12.216-14.624,24.934-21.176,37.8-6.592,12.944-12.766,26.356-18.352,39.865-5.628,13.61-10.8,27.657-15.369,41.75-4.612,14.221-8.726,28.842-12.229,43.456-3.54,14.769-6.545,29.9-8.931,44.985C4.92,714.219,3.079,729.808,1.86,745.295.648,760.709.022,776.417,0,791.984Z" transform="translate(0 0)" fill="#f8e166"/>
  </g>
</svg>
